<svg width="126" height="126" viewBox="0 0 126 126" fill="none" xmlns="http://www.w3.org/2000/svg">
<circle cx="63" cy="63" r="63" fill="#121212"/>
<path d="M75.0681 64.2683H75.0656C73.6341 64.2683 72.4736 65.4288 72.4736 66.8603V66.8628C72.4736 68.2943 73.6341 69.4548 75.0656 69.4548H75.0681C76.4996 69.4548 77.6601 68.2943 77.6601 66.8628V66.8603C77.6601 65.4288 76.4996 64.2683 75.0681 64.2683Z" fill="#6C9FFF"/>
<path d="M63.1941 14C39.9295 14 21 32.9295 21 56.1941V100.25H29.3393V108.382H97.0515V100.25H105.391V56.1941C105.391 32.9295 86.4613 14 63.1941 14ZM94.1968 105.528H32.1915V100.25H94.1968V105.528ZM102.536 97.3955H23.8522V92.118H102.536V97.3955ZM93.6082 89.2658H86.8579V55.6712C86.8579 42.6229 76.2399 32.0049 63.1916 32.0049C50.1433 32.0049 39.5253 42.6204 39.5253 55.6712V89.2658H32.7751V55.507C32.7751 38.7375 46.4196 25.093 63.1916 25.093C79.9637 25.093 93.6057 38.7375 93.6057 55.507V89.2658H93.6082ZM84.0057 89.2658H42.3825V55.6712C42.3825 44.1943 51.7197 34.8596 63.1967 34.8596C74.6736 34.8596 84.0083 44.1968 84.0083 55.6712V89.2658H84.0057ZM96.4629 89.2658V55.507C96.4629 37.1636 81.5401 22.2382 63.1941 22.2382C44.8482 22.2382 29.9279 37.1636 29.9279 55.5095V89.2684H23.8522V56.1967C23.8522 34.5009 41.5034 16.8522 63.1967 16.8522C84.89 16.8522 102.539 34.5009 102.539 56.1941V89.2658H96.4654H96.4629Z" fill="#6C9FFF"/>
</svg>
