<svg width="662" height="211" viewBox="0 0 662 211" fill="none" xmlns="http://www.w3.org/2000/svg">
<path d="M391.63 179.673H394.696V148.496C393.691 148.647 392.666 148.757 391.63 148.824V179.673Z" fill="#6C9FFF"/>
<path d="M399.35 179.674H402.416V146.52C401.432 146.9 400.407 147.238 399.35 147.535V179.674Z" fill="#6C9FFF"/>
<path d="M407.005 144.242V179.677H410.071V142.144C408.869 143.071 407.875 143.722 407.302 144.07C407.203 144.128 407.104 144.185 407.005 144.242Z" fill="#6C9FFF"/>
<path d="M436.892 63.2327C428.709 63.2327 421.176 66.5331 415.206 72.0354C415.867 72.8007 416.491 73.6075 417.095 74.4456C422.54 69.3493 429.417 66.2936 436.892 66.2936C454.503 66.2936 468.829 83.2119 468.829 104.003C468.829 124.794 454.503 141.712 436.892 141.712C429.693 141.712 423.045 138.881 417.694 134.117C417.137 134.924 416.523 135.742 415.846 136.559C421.707 141.712 429 144.779 436.892 144.779C456.195 144.779 471.895 126.486 471.895 104.003C471.895 81.52 456.195 63.2275 436.892 63.2275V63.2327Z" fill="#6C9FFF"/>
<path d="M436.483 73.911C450.33 73.911 461.594 87.4144 461.594 104.01C461.594 120.605 450.33 134.109 436.483 134.109C430.72 134.109 425.41 131.766 421.173 127.846C420.783 128.747 420.324 129.71 419.788 130.704C424.463 134.765 430.241 137.175 436.488 137.175C452.027 137.175 464.666 122.297 464.666 104.015C464.666 85.733 452.027 70.8553 436.488 70.8553C430.002 70.8553 424.026 73.4529 419.257 77.8048C419.773 78.7054 420.267 79.6424 420.725 80.6054C425.036 76.4253 430.522 73.9162 436.488 73.9162L436.483 73.911Z" fill="#6C9FFF"/>
<path d="M423.738 88.7789C426.955 84.8955 431.369 82.4905 436.242 82.4905C446.044 82.4905 454.019 92.2146 454.019 104.161C454.019 116.108 446.044 125.832 436.242 125.832C431.452 125.832 427.106 123.5 423.904 119.731C423.608 120.908 423.285 122.058 422.915 123.167C426.528 126.743 431.177 128.899 436.242 128.899C447.736 128.899 457.085 117.8 457.085 104.161C457.085 90.5228 447.736 79.4244 436.242 79.4244C431.072 79.4244 426.335 81.6785 422.691 85.3901C422.764 85.5931 422.837 85.7857 422.91 85.9887C423.212 86.8945 423.483 87.8263 423.738 88.7789Z" fill="#6C9FFF"/>
<path d="M230.042 77.131C227.845 73.5756 224.815 70.6605 221.015 68.4585C216.778 66.0066 211.53 64.7625 205.424 64.7625C200.76 64.7625 196.361 65.6371 192.358 67.3601C188.345 69.0884 184.847 71.686 181.952 75.08C179.063 78.4689 176.783 82.6906 175.175 87.6255C173.566 92.55 172.754 98.3543 172.754 104.882C172.754 111.41 173.566 117.053 175.175 121.972C176.335 125.528 177.902 129.999 181.952 134.518C186.419 139.499 191.484 141.769 194.029 142.711C196.679 143.695 205.143 146.829 214.321 143.128C226.111 138.37 229.552 126.173 229.948 124.674C229.979 130.842 230.01 137.011 230.042 143.18H250.843V29L230.042 36.2462V77.1258V77.131ZM195.523 94.5802C196.497 91.7744 197.808 89.4475 199.417 87.6776C201.026 85.9077 202.926 84.575 205.07 83.7213C207.22 82.8624 209.516 82.4251 211.879 82.4251C217.043 82.4251 221.405 84.2783 224.846 87.9327C228.292 91.5974 230.042 97.1362 230.042 104.393V105.054C230.042 112.425 228.292 118.021 224.846 121.681C221.405 125.335 217.043 127.188 211.879 127.188C209.505 127.188 207.215 126.751 205.065 125.892C202.926 125.038 201.02 123.706 199.412 121.936C197.798 120.161 196.486 117.839 195.518 115.028C194.545 112.212 194.05 108.802 194.05 104.887C194.05 100.973 194.545 97.4017 195.518 94.5802H195.523Z" fill="white"/>
<path d="M311.834 109.85C311.834 112 311.422 114.123 310.621 116.164C309.814 118.21 308.695 120.037 307.3 121.594C305.904 123.15 304.218 124.399 302.287 125.31C300.36 126.221 298.19 126.679 295.826 126.679C291.87 126.679 288.679 125.357 286.342 122.749C283.989 120.131 282.797 115.175 282.797 108.022V66.0809H261.995V114.811C261.995 120.245 262.698 124.915 264.088 128.684C265.478 132.473 267.43 135.612 269.892 138.012C272.349 140.417 275.269 142.176 278.57 143.238C283.536 144.837 287.893 144.863 289.033 144.831C292.193 144.743 297.966 144.576 303.348 140.74C310.267 135.81 311.901 128.111 312.271 126.06C312.125 131.765 311.979 137.471 311.834 143.176H332.797V66.0861H312L311.834 109.85Z" fill="white"/>
<path d="M483.093 143.203H504.061V29.0237L483.093 36.3063V143.203Z" fill="white"/>
<path d="M579.604 81.7333C577.652 77.6105 574.997 74.2476 571.707 71.7438C568.428 69.2451 564.649 67.4387 560.474 66.3768C556.325 65.3252 551.973 64.7891 547.548 64.7891C541.374 64.7891 535.804 65.3513 530.989 66.4549C526.184 67.5584 522.4 68.7349 519.74 69.9582L519.469 70.0832L522.587 87.246L523.03 87.0482C525.981 85.7364 529.308 84.5756 532.91 83.5917C536.502 82.613 540.255 82.1133 544.066 82.1133C549.256 82.1133 553.42 83.1492 556.434 85.195C559.334 87.1627 560.994 90.7182 561.374 95.7624C552.837 95.9967 545.539 96.8035 539.677 98.1622C533.696 99.5469 528.865 101.431 525.315 103.763C521.744 106.106 519.136 108.943 517.564 112.196C516.002 115.434 515.211 119.057 515.211 122.962C515.211 129.672 517.486 135.06 521.963 138.979C526.424 142.889 532.082 144.867 538.772 144.867C540.651 144.867 543.79 144.914 547.168 143.69C557.788 139.843 561.265 127.064 561.759 125.138C561.697 131.161 561.635 137.189 561.572 143.211H582.368L582.535 97.2981C582.535 91.093 581.546 85.8613 579.599 81.7385L579.604 81.7333ZM561.411 113.144C560.869 118.001 559.042 121.931 555.981 124.831C552.926 127.73 549.417 129.198 545.565 129.198C542.374 129.198 539.927 128.396 538.298 126.824C536.663 125.247 535.783 123.217 535.685 120.796C535.575 117.064 537.428 114.336 541.343 112.462C545.252 110.588 552.004 109.411 561.406 108.959V113.149L561.411 113.144Z" fill="white"/>
<path d="M411.692 74.99C408.792 71.6532 405.268 69.0816 401.203 67.3586C397.142 65.6355 392.718 64.761 388.053 64.761C381.942 64.761 376.752 66.0051 372.624 68.457C368.923 70.6589 365.95 73.5689 363.764 77.1243V65.9218H342.962V179.274H363.764C363.873 161.476 363.977 143.673 364.087 125.875C365.107 128.884 367.824 135.37 374.441 139.873C384.389 146.64 397.163 144.844 404.909 140.138C405.497 139.779 408.589 137.868 411.687 134.355C415.784 129.706 417.429 125.089 418.548 121.726C420.208 116.744 421.052 110.966 421.052 104.553C421.052 98.1393 420.208 92.3871 418.548 87.4574C416.882 82.5225 414.576 78.3268 411.687 74.9952L411.692 74.99ZM398.293 115.016C397.319 117.827 396.013 120.149 394.399 121.924C392.79 123.694 390.885 125.026 388.746 125.88C386.596 126.739 384.305 127.176 381.937 127.176C376.773 127.176 372.411 125.323 368.97 121.669C365.523 118.009 363.774 112.418 363.774 105.042V104.381C363.774 97.119 365.523 91.5803 368.97 87.9207C372.411 84.2664 376.773 82.4132 381.937 82.4132C384.305 82.4132 386.596 82.8505 388.746 83.7094C390.89 84.5683 392.79 85.9009 394.399 87.6656C396.008 89.4356 397.319 91.7573 398.293 94.5683C399.266 97.3845 399.761 100.851 399.761 104.875C399.761 108.899 399.266 112.2 398.293 115.016Z" fill="white"/>
<path d="M95.0681 107.361H95.0656C93.6341 107.361 92.4736 108.521 92.4736 109.953V109.955C92.4736 111.387 93.6341 112.547 95.0656 112.547H95.0681C96.4996 112.547 97.6601 111.387 97.6601 109.955V109.953C97.6601 108.521 96.4996 107.361 95.0681 107.361Z" fill="#6C9FFF"/>
<path d="M83.1941 57.0923C59.9295 57.0923 41 76.0218 41 99.2864V143.342H49.3393V151.475H117.052V143.342H125.391V99.2864C125.391 76.0218 106.461 57.0923 83.1941 57.0923ZM114.197 148.62H52.1915V143.342H114.197V148.62ZM122.536 140.488H43.8522V135.21H122.536V140.488ZM113.608 132.358H106.858V98.7635C106.858 85.7152 96.2399 75.0972 83.1916 75.0972C70.1433 75.0972 59.5253 85.7127 59.5253 98.7635V132.358H52.7751V98.5993C52.7751 81.8297 66.4196 68.1852 83.1916 68.1852C99.9637 68.1852 113.606 81.8297 113.606 98.5993V132.358H113.608ZM104.006 132.358H62.3825V98.7635C62.3825 87.2865 71.7197 77.9519 83.1967 77.9519C94.6736 77.9519 104.008 87.2891 104.008 98.7635V132.358H104.006ZM116.463 132.358V98.5993C116.463 80.2559 101.54 65.3305 83.1941 65.3305C64.8482 65.3305 49.9279 80.2559 49.9279 98.6018V132.361H43.8522V99.289C43.8522 77.5932 61.5034 59.9445 83.1967 59.9445C104.89 59.9445 122.539 77.5932 122.539 99.2864V132.358H116.465H116.463Z" fill="#6C9FFF"/>
</svg>
