<svg width="986" height="314" viewBox="0 0 986 314" fill="none" xmlns="http://www.w3.org/2000/svg">
<g clip-path="url(#clip0_234_1345)">
<path d="M643.681 226.707C644.441 226.707 645.095 226.981 645.642 227.528C646.189 228.045 646.463 228.699 646.463 229.489C646.463 230.28 646.189 230.949 645.642 231.496C645.095 232.043 644.441 232.317 643.681 232.317C642.921 232.317 642.267 232.043 641.72 231.496C641.173 230.949 640.899 230.28 640.899 229.489C640.899 228.699 641.173 228.045 641.72 227.528C642.267 226.981 642.921 226.707 643.681 226.707ZM641.446 236.376H645.87V259.452H641.446V236.376ZM658.027 239.842C658.696 238.626 659.623 237.653 660.809 236.923C662.025 236.193 663.591 235.828 665.506 235.828C666.813 235.828 668.014 236.056 669.109 236.513C670.203 236.938 671.146 237.561 671.936 238.382C672.727 239.203 673.335 240.222 673.761 241.438C674.217 242.624 674.445 243.977 674.445 245.497V259.452H670.021V245.679C670.021 243.764 669.489 242.32 668.425 241.347C667.361 240.374 666.084 239.887 664.594 239.887C663.408 239.887 662.39 240.146 661.538 240.663C660.717 241.149 660.048 241.772 659.532 242.533C659.045 243.293 658.68 244.144 658.437 245.086C658.224 245.999 658.118 246.88 658.118 247.732V259.452H653.694V236.376H658.027V239.842ZM687.861 259.452L678.42 236.376H683.163L689.867 253.524L696.571 236.376H701.314L691.874 259.452H687.861ZM715.245 235.828C716.887 235.828 718.362 236.117 719.669 236.695C720.976 237.242 722.071 238.002 722.953 238.975C723.834 239.948 724.503 241.088 724.959 242.396C725.446 243.673 725.689 245.056 725.689 246.546C725.689 247.397 725.613 248.233 725.461 249.054H708.45C708.571 250.27 708.86 251.319 709.316 252.201C709.803 253.052 710.411 253.752 711.141 254.299C711.87 254.846 712.676 255.257 713.558 255.53C714.47 255.773 715.428 255.895 716.431 255.895C717.89 255.895 719.304 255.652 720.672 255.165C722.041 254.679 723.211 253.995 724.184 253.113V257.719C722.694 258.723 721.265 259.346 719.897 259.589C718.529 259.863 717.161 260 715.792 260C713.968 260 712.311 259.696 710.821 259.088C709.362 258.449 708.1 257.598 707.036 256.534C706.002 255.439 705.197 254.162 704.619 252.703C704.072 251.243 703.798 249.662 703.798 247.96C703.798 246.257 704.072 244.676 704.619 243.217C705.166 241.727 705.926 240.435 706.899 239.34C707.903 238.246 709.104 237.394 710.502 236.786C711.931 236.148 713.512 235.828 715.245 235.828ZM715.154 239.796C713.421 239.796 711.977 240.298 710.821 241.301C709.666 242.304 708.921 243.688 708.587 245.451H721.311C721.159 243.718 720.52 242.35 719.395 241.347C718.301 240.313 716.887 239.796 715.154 239.796ZM735.967 240.435C736.544 239.006 737.396 237.881 738.521 237.06C739.676 236.239 741.029 235.828 742.58 235.828C742.853 235.828 743.112 235.844 743.355 235.874C743.629 235.904 743.841 235.95 743.993 236.011V240.343C743.902 240.313 743.765 240.298 743.583 240.298C743.401 240.267 743.233 240.252 743.081 240.252C740.953 240.252 739.25 240.952 737.973 242.35C736.696 243.749 736.058 245.634 736.058 248.005V259.452H731.634V236.376H735.967V240.435ZM755.847 235.828C757.185 235.828 758.492 236.026 759.769 236.421C761.046 236.786 762.095 237.303 762.916 237.972V242.533C761.882 241.651 760.803 240.982 759.678 240.526C758.553 240.039 757.337 239.796 756.029 239.796C754.57 239.796 753.49 240.07 752.791 240.617C752.092 241.134 751.742 241.788 751.742 242.578C751.742 243.429 752.153 244.098 752.974 244.585C753.794 245.071 754.98 245.543 756.531 245.999C757.443 246.272 758.355 246.576 759.267 246.911C760.179 247.215 760.985 247.625 761.684 248.142C762.414 248.659 762.992 249.297 763.417 250.058C763.873 250.818 764.101 251.775 764.101 252.931C764.101 255.12 763.326 256.853 761.776 258.13C760.225 259.376 758.127 260 755.482 260C753.962 260 752.487 259.787 751.058 259.361C749.66 258.905 748.428 258.236 747.364 257.355V252.429C748.489 253.584 749.675 254.481 750.921 255.12C752.168 255.728 753.582 256.032 755.163 256.032C756.713 256.032 757.869 255.743 758.629 255.165C759.419 254.588 759.814 253.858 759.814 252.976C759.814 252.034 759.374 251.35 758.492 250.924C757.61 250.468 756.333 249.982 754.661 249.465C753.749 249.191 752.852 248.887 751.97 248.553C751.119 248.188 750.344 247.762 749.644 247.276C748.975 246.759 748.428 246.151 748.003 245.451C747.607 244.722 747.41 243.84 747.41 242.806C747.41 241.803 747.607 240.875 748.003 240.024C748.398 239.173 748.96 238.443 749.69 237.835C750.45 237.197 751.347 236.71 752.381 236.376C753.414 236.011 754.57 235.828 755.847 235.828ZM772.171 226.707C772.931 226.707 773.585 226.981 774.132 227.528C774.679 228.045 774.953 228.699 774.953 229.489C774.953 230.28 774.679 230.949 774.132 231.496C773.585 232.043 772.931 232.317 772.171 232.317C771.411 232.317 770.757 232.043 770.21 231.496C769.663 230.949 769.389 230.28 769.389 229.489C769.389 228.699 769.663 228.045 770.21 227.528C770.757 226.981 771.411 226.707 772.171 226.707ZM769.936 236.376H774.36V259.452H769.936V236.376ZM792.217 235.828C793.92 235.828 795.501 236.148 796.96 236.786C798.42 237.394 799.681 238.246 800.746 239.34C801.81 240.404 802.646 241.681 803.254 243.171C803.862 244.63 804.166 246.211 804.166 247.914C804.166 249.617 803.862 251.213 803.254 252.703C802.646 254.162 801.81 255.439 800.746 256.534C799.681 257.598 798.42 258.449 796.96 259.088C795.501 259.696 793.92 260 792.217 260C790.515 260 788.934 259.696 787.474 259.088C786.015 258.449 784.753 257.598 783.689 256.534C782.625 255.439 781.789 254.162 781.181 252.703C780.573 251.213 780.268 249.617 780.268 247.914C780.268 246.211 780.573 244.63 781.181 243.171C781.789 241.681 782.625 240.404 783.689 239.34C784.753 238.246 786.015 237.394 787.474 236.786C788.934 236.148 790.515 235.828 792.217 235.828ZM792.217 240.024C791.123 240.024 790.119 240.237 789.207 240.663C788.295 241.088 787.505 241.666 786.836 242.396C786.197 243.095 785.696 243.931 785.331 244.904C784.966 245.847 784.783 246.85 784.783 247.914C784.783 248.978 784.966 249.997 785.331 250.97C785.696 251.912 786.197 252.748 786.836 253.478C787.505 254.177 788.295 254.74 789.207 255.165C790.119 255.591 791.123 255.804 792.217 255.804C793.312 255.804 794.315 255.591 795.227 255.165C796.139 254.74 796.915 254.177 797.553 253.478C798.222 252.748 798.739 251.912 799.104 250.97C799.469 249.997 799.651 248.978 799.651 247.914C799.651 246.85 799.469 245.847 799.104 244.904C798.739 243.931 798.222 243.095 797.553 242.396C796.915 241.666 796.139 241.088 795.227 240.663C794.315 240.237 793.312 240.024 792.217 240.024ZM814.441 239.842C815.11 238.626 816.038 237.653 817.223 236.923C818.439 236.193 820.005 235.828 821.921 235.828C823.228 235.828 824.429 236.056 825.524 236.513C826.618 236.938 827.561 237.561 828.351 238.382C829.142 239.203 829.75 240.222 830.175 241.438C830.632 242.624 830.86 243.977 830.86 245.497V259.452H826.436V245.679C826.436 243.764 825.904 242.32 824.84 241.347C823.775 240.374 822.498 239.887 821.009 239.887C819.823 239.887 818.804 240.146 817.953 240.663C817.132 241.149 816.463 241.772 815.946 242.533C815.46 243.293 815.095 244.144 814.852 245.086C814.639 245.999 814.533 246.88 814.533 247.732V259.452H810.109V236.376H814.441V239.842ZM840.536 226.707C841.296 226.707 841.949 226.981 842.497 227.528C843.044 228.045 843.318 228.699 843.318 229.489C843.318 230.28 843.044 230.949 842.497 231.496C841.949 232.043 841.296 232.317 840.536 232.317C839.775 232.317 839.122 232.043 838.574 231.496C838.027 230.949 837.754 230.28 837.754 229.489C837.754 228.699 838.027 228.045 838.574 227.528C839.122 226.981 839.775 226.707 840.536 226.707ZM838.301 236.376H842.725V259.452H838.301V236.376ZM857.481 235.828C858.818 235.828 860.126 236.026 861.403 236.421C862.68 236.786 863.729 237.303 864.55 237.972V242.533C863.516 241.651 862.437 240.982 861.312 240.526C860.187 240.039 858.971 239.796 857.663 239.796C856.204 239.796 855.124 240.07 854.425 240.617C853.726 241.134 853.376 241.788 853.376 242.578C853.376 243.429 853.787 244.098 854.608 244.585C855.428 245.071 856.614 245.543 858.165 245.999C859.077 246.272 859.989 246.576 860.901 246.911C861.813 247.215 862.619 247.625 863.318 248.142C864.048 248.659 864.626 249.297 865.051 250.058C865.507 250.818 865.735 251.775 865.735 252.931C865.735 255.12 864.96 256.853 863.41 258.13C861.859 259.376 859.761 260 857.116 260C855.596 260 854.121 259.787 852.692 259.361C851.293 258.905 850.062 258.236 848.998 257.355V252.429C850.123 253.584 851.309 254.481 852.555 255.12C853.802 255.728 855.216 256.032 856.797 256.032C858.347 256.032 859.503 255.743 860.263 255.165C861.053 254.588 861.448 253.858 861.448 252.976C861.448 252.034 861.008 251.35 860.126 250.924C859.244 250.468 857.967 249.982 856.295 249.465C855.383 249.191 854.486 248.887 853.604 248.553C852.753 248.188 851.978 247.762 851.278 247.276C850.609 246.759 850.062 246.151 849.636 245.451C849.241 244.722 849.044 243.84 849.044 242.806C849.044 241.803 849.241 240.875 849.636 240.024C850.032 239.173 850.594 238.443 851.324 237.835C852.084 237.197 852.981 236.71 854.015 236.376C855.048 236.011 856.204 235.828 857.481 235.828ZM883.291 259.224C882.409 259.741 881.178 260 879.597 260C877.317 260 875.538 259.361 874.261 258.084C873.014 256.807 872.391 254.998 872.391 252.657V240.07H868.925V236.376H872.528V230.949L876.815 229.58V236.376H882.744V240.07H876.815V252.11C876.815 254.633 878.061 255.895 880.555 255.895C880.798 255.895 881.178 255.865 881.695 255.804C882.212 255.713 882.744 255.5 883.291 255.165V259.224ZM888.447 238.109C889.389 237.47 890.544 236.938 891.913 236.513C893.281 236.056 894.74 235.828 896.291 235.828C899.24 235.828 901.566 236.619 903.269 238.2C904.971 239.751 905.822 241.864 905.822 244.539V259.452H901.718V255.895C900.897 257.263 899.833 258.297 898.526 258.996C897.249 259.665 895.804 260 894.193 260C893.129 260 892.141 259.832 891.229 259.498C890.316 259.164 889.526 258.707 888.857 258.13C888.188 257.522 887.656 256.807 887.261 255.986C886.896 255.165 886.714 254.284 886.714 253.341C886.714 251.274 887.443 249.662 888.903 248.507C890.392 247.352 892.536 246.576 895.333 246.181L901.399 245.314V244.448C901.399 242.989 900.927 241.864 899.985 241.073C899.042 240.252 897.72 239.842 896.017 239.842C894.467 239.842 893.038 240.131 891.73 240.708C890.423 241.286 889.328 241.894 888.447 242.533V238.109ZM894.923 256.26C895.865 256.26 896.732 256.093 897.522 255.758C898.313 255.393 898.997 254.922 899.574 254.345C900.183 253.736 900.654 253.052 900.988 252.292C901.323 251.532 901.49 250.742 901.49 249.921V248.735L896.017 249.419C894.406 249.632 893.174 250.042 892.323 250.65C891.472 251.258 891.046 252.064 891.046 253.068C891.046 254.04 891.396 254.816 892.095 255.393C892.825 255.971 893.767 256.26 894.923 256.26ZM920.234 235.828C921.571 235.828 922.879 236.026 924.156 236.421C925.433 236.786 926.482 237.303 927.303 237.972V242.533C926.269 241.651 925.19 240.982 924.065 240.526C922.94 240.039 921.723 239.796 920.416 239.796C918.957 239.796 917.877 240.07 917.178 240.617C916.479 241.134 916.129 241.788 916.129 242.578C916.129 243.429 916.54 244.098 917.36 244.585C918.181 245.071 919.367 245.543 920.918 245.999C921.83 246.272 922.742 246.576 923.654 246.911C924.566 247.215 925.372 247.625 926.071 248.142C926.801 248.659 927.379 249.297 927.804 250.058C928.26 250.818 928.488 251.775 928.488 252.931C928.488 255.12 927.713 256.853 926.162 258.13C924.612 259.376 922.514 260 919.869 260C918.349 260 916.874 259.787 915.445 259.361C914.046 258.905 912.815 258.236 911.751 257.355V252.429C912.876 253.584 914.062 254.481 915.308 255.12C916.555 255.728 917.969 256.032 919.55 256.032C921.1 256.032 922.256 255.743 923.016 255.165C923.806 254.588 924.201 253.858 924.201 252.976C924.201 252.034 923.761 251.35 922.879 250.924C921.997 250.468 920.72 249.982 919.048 249.465C918.136 249.191 917.239 248.887 916.357 248.553C915.506 248.188 914.731 247.762 914.031 247.276C913.362 246.759 912.815 246.151 912.389 245.451C911.994 244.722 911.797 243.84 911.797 242.806C911.797 241.803 911.994 240.875 912.389 240.024C912.785 239.173 913.347 238.443 914.077 237.835C914.837 237.197 915.734 236.71 916.768 236.376C917.801 236.011 918.957 235.828 920.234 235.828Z" fill="white"/>
<path d="M566.435 258.452H570.998V212.056C569.503 212.281 567.977 212.444 566.435 212.544V258.452Z" fill="#6C9FFF"/>
<path d="M577.924 258.454H582.487V209.115C581.023 209.681 579.497 210.184 577.924 210.626V258.454Z" fill="#6C9FFF"/>
<path d="M589.316 205.725V258.457H593.879V202.604C592.09 203.982 590.61 204.951 589.758 205.47C589.611 205.555 589.464 205.64 589.316 205.725Z" fill="#6C9FFF"/>
<path d="M633.792 85.1711C621.615 85.1711 610.405 90.0825 601.52 98.2708C602.503 99.4096 603.433 100.61 604.332 101.858C612.435 94.2735 622.668 89.7262 633.792 89.7262C660 89.7262 681.319 114.903 681.319 145.843C681.319 176.784 660 201.961 633.792 201.961C623.079 201.961 613.186 197.747 605.222 190.658C604.394 191.859 603.479 193.075 602.472 194.292C611.195 201.961 622.048 206.524 633.792 206.524C662.517 206.524 685.881 179.302 685.881 145.843C685.881 112.385 662.517 85.1633 633.792 85.1633V85.1711Z" fill="#6C9FFF"/>
<path d="M633.183 101.062C653.789 101.062 670.553 121.157 670.553 145.854C670.553 170.55 653.789 190.645 633.183 190.645C624.607 190.645 616.705 187.159 610.4 181.326C609.819 182.666 609.137 184.099 608.339 185.579C615.296 191.621 623.894 195.208 633.19 195.208C656.314 195.208 675.124 173.068 675.124 145.862C675.124 118.655 656.314 96.5149 633.19 96.5149C623.538 96.5149 614.645 100.381 607.549 106.857C608.316 108.197 609.052 109.591 609.733 111.025C616.148 104.804 624.313 101.07 633.19 101.07L633.183 101.062Z" fill="#6C9FFF"/>
<path d="M614.216 123.187C619.004 117.408 625.573 113.829 632.824 113.829C647.411 113.829 659.279 128.3 659.279 146.079C659.279 163.858 647.411 178.329 632.824 178.329C625.697 178.329 619.228 174.858 614.464 169.25C614.023 171 613.542 172.712 612.992 174.362C618.369 179.684 625.286 182.892 632.824 182.892C649.929 182.892 663.842 166.375 663.842 146.079C663.842 125.783 649.929 109.267 632.824 109.267C625.131 109.267 618.082 112.621 612.659 118.144C612.768 118.446 612.876 118.733 612.985 119.035C613.434 120.383 613.837 121.77 614.216 123.187Z" fill="#6C9FFF"/>
<path d="M325.967 105.854C322.698 100.563 318.189 96.2244 312.534 92.9475C306.228 89.2988 298.42 87.4473 289.333 87.4473C282.392 87.4473 275.846 88.7488 269.889 91.313C263.916 93.8849 258.71 97.7505 254.403 102.801C250.103 107.844 246.71 114.127 244.317 121.471C241.923 128.799 240.714 137.437 240.714 147.151C240.714 156.866 241.923 165.263 244.317 172.584C246.044 177.875 248.376 184.529 254.403 191.254C261.05 198.667 268.587 202.045 272.375 203.447C276.318 204.911 288.915 209.575 302.572 204.067C320.118 196.986 325.239 178.836 325.828 176.604C325.874 185.784 325.921 194.964 325.967 204.144H356.923V34.2273L325.967 45.0107V105.846V105.854ZM274.599 131.821C276.047 127.645 277.999 124.182 280.393 121.548C282.787 118.915 285.614 116.931 288.806 115.661C292.005 114.383 295.422 113.732 298.939 113.732C306.624 113.732 313.115 116.49 318.236 121.928C323.364 127.382 325.967 135.624 325.967 146.423V147.407C325.967 158.376 323.364 166.704 318.236 172.15C313.115 177.588 306.624 180.346 298.939 180.346C295.406 180.346 291.998 179.695 288.798 178.417C285.614 177.147 282.779 175.164 280.385 172.53C277.984 169.888 276.032 166.433 274.591 162.25C273.142 158.059 272.406 152.985 272.406 147.159C272.406 141.334 273.142 136.019 274.591 131.821H274.599Z" fill="white"/>
<path d="M447.686 154.544C447.686 157.744 447.074 160.904 445.881 163.941C444.68 166.985 443.014 169.705 440.938 172.021C438.862 174.337 436.352 176.196 433.478 177.552C430.612 178.908 427.381 179.589 423.864 179.589C417.977 179.589 413.228 177.622 409.75 173.741C406.248 169.844 404.474 162.469 404.474 151.825V89.4097H373.518V161.927C373.518 170.014 374.564 176.963 376.632 182.572C378.701 188.211 381.606 192.883 385.27 196.454C388.927 200.033 393.272 202.651 398.184 204.232C405.574 206.61 412.058 206.649 413.755 206.602C418.457 206.471 427.048 206.223 435.058 200.513C445.354 193.177 447.786 181.72 448.336 178.668C448.119 187.158 447.902 195.648 447.686 204.139H478.882V89.4174H447.933L447.686 154.544Z" fill="white"/>
<path d="M702.547 204.179H733.75V34.2627L702.547 45.1004V204.179Z" fill="white"/>
<path d="M846.169 112.703C843.264 106.567 839.314 101.563 834.418 97.8367C829.537 94.1183 823.913 91.4301 817.7 89.8498C811.526 88.285 805.05 87.4871 798.465 87.4871C789.277 87.4871 780.988 88.3237 773.823 89.966C766.672 91.6083 761.041 93.3591 757.082 95.1796L756.679 95.3655L761.319 120.906L761.978 120.612C766.37 118.66 771.32 116.932 776.681 115.468C782.026 114.012 787.612 113.268 793.282 113.268C801.006 113.268 807.203 114.81 811.689 117.854C816.004 120.783 818.475 126.074 819.04 133.58C806.336 133.929 795.475 135.129 786.752 137.151C777.851 139.212 770.662 142.016 765.379 145.487C760.064 148.973 756.183 153.195 753.844 158.037C751.52 162.855 750.342 168.247 750.342 174.057C750.342 184.042 753.728 192.06 760.39 197.893C767.029 203.711 775.449 206.655 785.404 206.655C788.201 206.655 792.872 206.725 797.899 204.904C813.703 199.179 818.878 180.161 819.614 177.295C819.521 186.258 819.428 195.229 819.335 204.192H850.283L850.531 135.865C850.531 126.631 849.059 118.846 846.162 112.71L846.169 112.703ZM819.095 159.446C818.289 166.674 815.57 172.523 811.015 176.838C806.467 181.153 801.246 183.337 795.514 183.337C790.765 183.337 787.124 182.144 784.699 179.805C782.267 177.458 780.957 174.436 780.81 170.834C780.648 165.28 783.405 161.22 789.231 158.432C795.049 155.643 805.096 153.892 819.087 153.218V159.454L819.095 159.446Z" fill="white"/>
<path d="M596.291 102.668C591.976 97.702 586.731 93.8751 580.681 91.3109C574.638 88.7468 568.054 87.4453 561.113 87.4453C552.018 87.4453 544.295 89.2968 538.151 92.9455C532.643 96.2223 528.22 100.553 524.966 105.844V89.1728H494.01V257.858H524.966C525.129 231.372 525.284 204.878 525.447 178.392C526.965 182.87 531.009 192.522 540.855 199.223C555.659 209.294 574.669 206.621 586.197 199.618C587.072 199.083 591.674 196.24 596.283 191.011C602.379 184.093 604.827 177.222 606.493 172.218C608.964 164.804 610.219 156.205 610.219 146.661C610.219 137.117 608.964 128.557 606.493 121.221C604.014 113.877 600.582 107.633 596.283 102.675L596.291 102.668ZM576.35 162.232C574.902 166.415 572.957 169.871 570.556 172.512C568.162 175.146 565.327 177.129 562.143 178.4C558.944 179.678 555.535 180.329 552.01 180.329C544.326 180.329 537.834 177.571 532.713 172.133C527.585 166.687 524.982 158.367 524.982 147.39V146.406C524.982 135.599 527.585 127.356 532.713 121.911C537.834 116.472 544.326 113.714 552.01 113.714C555.535 113.714 558.944 114.365 562.143 115.643C565.335 116.922 568.162 118.905 570.556 121.531C572.95 124.165 574.902 127.62 576.35 131.803C577.799 135.994 578.535 141.153 578.535 147.142C578.535 153.13 577.799 158.041 576.35 162.232Z" fill="white"/>
<path d="M125.106 150.84H125.102C122.972 150.84 121.245 152.567 121.245 154.697V154.701C121.245 156.831 122.972 158.558 125.102 158.558H125.106C127.236 158.558 128.963 156.831 128.963 154.701V154.697C128.963 152.567 127.236 150.84 125.106 150.84Z" fill="#6C9FFF"/>
<path d="M107.436 76.0332C72.8145 76.0332 44.6445 104.203 44.6445 138.824V204.387H57.0547V216.488H157.821V204.387H170.231V138.824C170.231 104.203 142.061 76.0332 107.436 76.0332ZM153.572 212.24H61.2991V204.387H153.572V212.24ZM165.983 200.138H48.889V192.285H165.983V200.138ZM152.697 188.04H142.651V138.046C142.651 118.628 126.85 102.827 107.432 102.827C88.0142 102.827 72.213 118.625 72.213 138.046V188.04H62.1676V137.802C62.1676 112.846 82.4727 92.5412 107.432 92.5412C132.391 92.5412 152.693 112.846 152.693 137.802V188.04H152.697ZM138.407 188.04H76.465V138.046C76.465 120.967 90.3601 107.075 107.44 107.075C124.519 107.075 138.41 120.971 138.41 138.046V188.04H138.407ZM156.945 188.04V137.802C156.945 110.504 134.737 88.293 107.436 88.293C80.1343 88.293 57.9306 110.504 57.9306 137.806V188.044H48.889V138.828C48.889 106.542 75.1567 80.2777 107.44 80.2777C139.722 80.2777 165.986 106.542 165.986 138.824V188.04H156.949H156.945Z" fill="#6C9FFF"/>
</g>
<defs>
<clipPath id="clip0_234_1345">
<rect width="985.156" height="314" fill="white"/>
</clipPath>
</defs>
</svg>
