<svg width="132" height="132" viewBox="0 0 132 132" fill="none" xmlns="http://www.w3.org/2000/svg">
<circle cx="66.0006" cy="65.9999" r="13.3726" stroke="#6C9FFF" stroke-width="4.31372"/>
<path d="M46.2288 38.8672C51.8647 42.4261 59.3259 39.3356 60.7945 32.8338C62.0477 27.2861 69.9523 27.2861 71.2055 32.8338C72.6741 39.3356 80.1353 42.4261 85.7712 38.8672C90.5801 35.8304 96.1695 41.4199 93.1328 46.2288C89.5739 51.8647 92.6644 59.3259 99.1662 60.7945C104.714 62.0477 104.714 69.9523 99.1662 71.2055C92.6644 72.6741 89.5739 80.1353 93.1328 85.7712C96.1695 90.5801 90.5801 96.1695 85.7712 93.1328C80.1353 89.5739 72.6741 92.6644 71.2055 99.1662C69.9523 104.714 62.0477 104.714 60.7945 99.1662C59.3259 92.6644 51.8647 89.5739 46.2288 93.1328C41.4199 96.1695 35.8305 90.5801 38.8672 85.7712C42.4261 80.1353 39.3356 72.6741 32.8338 71.2055C27.2861 69.9523 27.2861 62.0477 32.8338 60.7945C39.3356 59.3259 42.4261 51.8647 38.8672 46.2288C35.8305 41.4199 41.4199 35.8305 46.2288 38.8672Z" stroke="#6C9FFF" stroke-width="4.31372"/>
</svg>
